<?xml version="1.0" standalone="no"?>
<!DOCTYPE svg PUBLIC "-//W3C//DTD SVG 20010904//EN"
 "http://www.w3.org/TR/2001/REC-SVG-20010904/DTD/svg10.dtd">
<svg version="1.0" xmlns="http://www.w3.org/2000/svg"
 width="200.000000pt" height="200.000000pt" viewBox="0 0 200.000000 200.000000"
 preserveAspectRatio="xMidYMid meet">
<metadata>
Created by potrace 1.14, written by Peter Selinger 2001-2017
</metadata>
<g transform="translate(0.000000,200.000000) scale(0.100000,-0.100000)"
fill="#000000" stroke="none">
<path d="M780 1730 c-289 -53 -520 -277 -586 -571 -12 -52 -16 -197 -6 -247
l10 -53 -47 -30 c-25 -16 -50 -30 -56 -32 -5 -3 -7 -7 -4 -11 4 -4 30 5 58 20
29 14 53 25 54 23 2 -2 11 -29 20 -59 22 -71 80 -170 139 -235 l47 -51 -23
-25 c-12 -13 -39 -39 -60 -57 -21 -18 -36 -37 -34 -42 2 -5 32 17 68 49 l64
58 51 -38 c122 -92 302 -148 458 -142 281 10 527 175 645 433 69 149 78 368
22 526 l-18 52 50 48 c96 95 188 220 216 295 7 18 -15 1 -73 -56 -73 -72 -193
-163 -236 -180 -9 -3 -21 6 -32 23 -77 131 -269 260 -442 298 -49 10 -236 13
-285 4z"/>
</g>
</svg>
